<svg width="22" height="159" viewBox="0 0 22 159" fill="none" xmlns="http://www.w3.org/2000/svg">
<g id="Goldx">
<path d="M11 158.424C9.23513 158.424 7.6983 158.136 6.38952 157.561C5.08074 156.986 4 156.104 3.14731 154.914C2.27479 153.704 1.63031 152.158 1.21388 150.274C0.77762 148.37 0.559489 146.099 0.559489 143.462C0.559489 141.895 0.63881 140.309 0.79745 138.703C0.95609 137.077 1.17422 135.5 1.45184 133.973C1.70963 132.446 1.99717 131.048 2.31445 129.779L5.37819 130.463C5.1204 131.594 4.87252 132.883 4.63456 134.33C4.37677 135.758 4.15864 137.275 3.98017 138.881C3.8017 140.468 3.71246 142.074 3.71246 143.7C3.71246 145.822 3.86119 147.597 4.15864 149.024C4.45609 150.452 4.91218 151.592 5.52691 152.445C6.12181 153.278 6.87535 153.883 7.78753 154.26C8.69972 154.616 9.77054 154.795 11 154.795C12.2493 154.795 13.33 154.616 14.2422 154.26C15.1544 153.883 15.9178 153.278 16.5326 152.445C17.1275 151.592 17.5737 150.452 17.8711 149.024C18.1686 147.597 18.3173 145.822 18.3173 143.7C18.3173 142.49 18.2578 141.291 18.1388 140.101C18.0198 138.891 17.881 137.721 17.7224 136.591C17.5439 135.461 17.3654 134.439 17.187 133.527H10.7025V129.779H19.7153C20.0326 131.048 20.33 132.446 20.6077 133.973C20.8654 135.5 21.0737 137.077 21.2323 138.703C21.3909 140.309 21.4703 141.895 21.4703 143.462C21.4703 146.099 21.262 148.37 20.8456 150.274C20.4093 152.158 19.7649 153.704 18.9122 154.914C18.0397 156.104 16.949 156.986 15.6402 157.561C14.3314 158.136 12.7847 158.424 11 158.424Z" fill="url(#paint0_linear_5115_10867)"/>
<path d="M21.5 110.439C21.5 114.108 21.1331 117.122 20.3994 119.482C19.6459 121.841 18.4958 123.596 16.949 124.747C15.4023 125.877 13.4193 126.442 11 126.442C8.56091 126.442 6.5779 125.877 5.05099 124.747C3.50425 123.596 2.36402 121.841 1.63031 119.482C0.87677 117.122 0.5 114.108 0.5 110.439C0.5 106.79 0.87677 103.786 1.63031 101.426C2.36402 99.0666 3.50425 97.3116 5.05099 96.1614C6.5779 95.0113 8.56091 94.4362 11 94.4362C13.4193 94.4362 15.4023 95.0113 16.949 96.1614C18.4958 97.3116 19.6459 99.0666 20.3994 101.426C21.1331 103.786 21.5 106.79 21.5 110.439ZM18.347 110.439C18.347 108.139 18.2082 106.205 17.9306 104.639C17.6331 103.052 17.187 101.783 16.5921 100.831C15.9773 99.8796 15.2139 99.1954 14.3017 98.779C13.3697 98.3428 12.2691 98.1246 11 98.1246C9.71105 98.1246 8.61048 98.3428 7.6983 98.779C6.78612 99.1954 6.03258 99.8796 5.43768 100.831C4.82295 101.783 4.37677 103.052 4.09915 104.639C3.8017 106.205 3.65297 108.139 3.65297 110.439C3.65297 113.513 3.91076 115.952 4.42634 117.756C4.94193 119.561 5.74504 120.86 6.83569 121.653C7.90652 122.426 9.29462 122.813 11 122.813C12.7054 122.813 14.1034 122.426 15.1941 121.653C16.2649 120.86 17.0581 119.561 17.5737 117.756C18.0892 115.952 18.347 113.513 18.347 110.439Z" fill="url(#paint1_linear_5115_10867)"/>
<path d="M18.0198 87.1863L18.0198 65.0262H21.1431L21.1431 90.8152H0.856939L0.856939 87.1863H18.0198Z" fill="url(#paint2_linear_5115_10867)"/>
<path d="M21.1431 44.2044V62.3191H0.856939L0.856939 44.2044C0.856939 42.261 1.04532 40.5556 1.4221 39.0882C1.77904 37.6208 2.35411 36.3814 3.14731 35.3701C3.92068 34.3587 4.95184 33.6052 6.24079 33.1094C7.52974 32.5938 9.10623 32.3361 10.9703 32.3361C12.8541 32.3361 14.4504 32.5938 15.7592 33.1094C17.0482 33.625 18.0892 34.3885 18.8824 35.3998C19.6756 36.3913 20.2507 37.6307 20.6077 39.1179C20.9646 40.5854 21.1431 42.2808 21.1431 44.2044ZM3.98017 58.6902H18.0198V44.5316C18.0198 42.4891 17.7918 40.8531 17.3357 39.6236C16.8598 38.3743 16.1062 37.472 15.0751 36.9168C14.0439 36.3616 12.6756 36.0839 10.9703 36.0839C9.24504 36.0839 7.87677 36.3616 6.86544 36.9168C5.85411 37.472 5.1204 38.3743 4.66431 39.6236C4.20821 40.8531 3.98017 42.4891 3.98017 44.5316L3.98017 58.6902Z" fill="url(#paint3_linear_5115_10867)"/>
<path d="M9.54249 16.2119L0.856939 5.50362L0.856939 0.208984L11.9816 13.9512L12.2493 14.7543L21.1431 25.7601V31.2034L9.98867 17.2529L9.54249 16.2119ZM0.856939 31.0547L0.856939 25.5518L9.51275 14.9031L10.0184 13.862L21.1431 0.000762939V5.56311L12.1898 16.5391L11.6841 17.6396L0.856939 31.0547Z" fill="url(#paint4_linear_5115_10867)"/>
</g>
<defs>
<linearGradient id="paint0_linear_5115_10867" x1="10.9185" y1="159.94" x2="10.9185" y2="-1.17911" gradientUnits="userSpaceOnUse">
<stop stop-color="#FAE8B2"/>
<stop offset="1" stop-color="#554B2D"/>
</linearGradient>
<linearGradient id="paint1_linear_5115_10867" x1="10.9185" y1="159.94" x2="10.9185" y2="-1.17911" gradientUnits="userSpaceOnUse">
<stop stop-color="#FAE8B2"/>
<stop offset="1" stop-color="#554B2D"/>
</linearGradient>
<linearGradient id="paint2_linear_5115_10867" x1="10.9185" y1="159.94" x2="10.9185" y2="-1.17911" gradientUnits="userSpaceOnUse">
<stop stop-color="#FAE8B2"/>
<stop offset="1" stop-color="#554B2D"/>
</linearGradient>
<linearGradient id="paint3_linear_5115_10867" x1="10.9185" y1="159.94" x2="10.9185" y2="-1.17911" gradientUnits="userSpaceOnUse">
<stop stop-color="#FAE8B2"/>
<stop offset="1" stop-color="#554B2D"/>
</linearGradient>
<linearGradient id="paint4_linear_5115_10867" x1="10.9185" y1="159.94" x2="10.9185" y2="-1.17911" gradientUnits="userSpaceOnUse">
<stop stop-color="#FAE8B2"/>
<stop offset="1" stop-color="#554B2D"/>
</linearGradient>
</defs>
</svg>
