<svg width="64" height="64" viewBox="0 0 64 64" fill="none" xmlns="http://www.w3.org/2000/svg">
<rect x="0.5" y="0.5" width="63" height="63" rx="31.5" fill="#2E2D2A" stroke="#5D5C5A"/>
<path fill-rule="evenodd" clip-rule="evenodd" d="M31.9932 25.1358C29.9938 22.7984 26.6597 22.1696 24.1547 24.31C21.6496 26.4504 21.297 30.029 23.2642 32.5604C24.8998 34.6651 29.8498 39.1041 31.4721 40.5408C31.6536 40.7016 31.7444 40.7819 31.8502 40.8135C31.9426 40.8411 32.0437 40.8411 32.1361 40.8135C32.2419 40.7819 32.3327 40.7016 32.5142 40.5408C34.1365 39.1041 39.0865 34.6651 40.7221 32.5604C42.6893 30.029 42.3797 26.4279 39.8316 24.31C37.2835 22.1922 33.9925 22.7984 31.9932 25.1358Z" stroke="white" stroke-width="1.5" stroke-linecap="square"/>
</svg>
