<svg width="123" height="77" viewBox="0 0 123 77" fill="none" xmlns="http://www.w3.org/2000/svg">
<path d="M0.5 61.5C0.5 70.0604 7.43959 77 16 77C24.5604 77 31.5 70.0604 31.5 61.5C31.5 60.339 31.3724 59.2078 31.1303 58.1197C30.4913 55.2467 30.9597 51.9767 33.2943 50.1845C34.2949 49.4164 35.521 49 36.7824 49H98.5C112.031 49 123 38.031 123 24.5C123 10.969 112.031 0 98.5 0H51.5C38.2452 0 27.5 10.7452 27.5 24V39.0946C27.5 41.2714 26.4878 43.3245 24.761 44.6501C22.8172 46.1423 20.2431 46.3873 17.8088 46.1044C17.2155 46.0355 16.6119 46 16 46C7.43959 46 0.5 52.9396 0.5 61.5Z" fill="white"/>
<path d="M59.5405 31.34C55.0605 31.34 53.0805 28.3 53.0805 24.34C53.0805 20.4 55.1805 17.34 59.9005 17.34C64.0005 17.34 65.9805 19.14 66.3405 22.38H64.2005C63.9205 20.16 62.6405 19.04 59.8205 19.04C56.6005 19.04 55.2405 20.88 55.2405 24.34C55.2405 27.76 56.5205 29.64 59.8405 29.64C62.9605 29.64 64.0605 27.88 64.3205 25.86H58.7005V24.34H66.3205V31H64.4605V28.18C63.8405 30.1 62.1205 31.34 59.5405 31.34ZM73.6855 31.32C70.2055 31.32 68.5255 28.94 68.5255 25.98C68.5255 23.06 70.2055 20.68 73.6855 20.68C77.1655 20.68 78.8455 23.08 78.8455 25.98C78.8455 28.92 77.1655 31.32 73.6855 31.32ZM70.5455 26C70.5455 28.66 71.5255 29.72 73.6855 29.72C75.8455 29.72 76.8255 28.66 76.8255 26C76.8255 23.34 75.8455 22.28 73.6855 22.28C71.5255 22.28 70.5455 23.34 70.5455 26ZM80.9781 31V17H82.9781V31H80.9781ZM93.6628 17H95.6628V31H93.6628V29.28C92.9828 30.58 91.7628 31.32 89.9628 31.32C86.7428 31.32 85.3028 28.94 85.3028 26C85.3028 23.06 86.7428 20.68 89.9628 20.68C91.7628 20.68 92.9828 21.42 93.6628 22.72V17ZM90.3828 29.72C92.4828 29.72 93.6628 28.56 93.6628 26C93.6628 23.44 92.4828 22.28 90.3828 22.28C88.1628 22.28 87.3228 23.52 87.3228 26C87.3228 28.48 88.1628 29.72 90.3828 29.72Z" fill="#111111"/>
<rect width="12" height="12" rx="6" transform="matrix(1 0 0 -1 10.5 67)" fill="url(#paint0_radial_464_19821)"/>
<defs>
<radialGradient id="paint0_radial_464_19821" cx="0" cy="0" r="1" gradientUnits="userSpaceOnUse" gradientTransform="translate(1.59 2.625) rotate(42.3859) scale(17.3837 43.8728)">
<stop stop-color="#F4E0A3"/>
<stop offset="0.373682" stop-color="#DCBC65"/>
<stop offset="0.638906" stop-color="#CA9F43"/>
<stop offset="0.79386" stop-color="#FEF0A0"/>
<stop offset="1" stop-color="#8E5F1E"/>
</radialGradient>
</defs>
</svg>
