<svg width="192" height="26" viewBox="0 0 192 26" fill="none" xmlns="http://www.w3.org/2000/svg">
<path d="M1.80471 12.9332C1.80471 10.8336 2.14677 9.00535 2.83091 7.44835C3.51505 5.89134 4.56485 4.60564 5.9803 3.59123C7.41935 2.55323 9.25944 1.78652 11.5006 1.29111C13.7653 0.772112 16.4665 0.512611 19.6041 0.512611C21.4677 0.512611 23.355 0.606975 25.2659 0.795703C27.2003 0.984429 29.0758 1.24393 30.8923 1.5742C32.7088 1.88088 34.372 2.22295 35.8818 2.60041L35.0679 6.24521C33.7232 5.93853 32.1898 5.64364 30.4677 5.36055C28.7691 5.05387 26.9644 4.79437 25.0536 4.58205C23.1663 4.36973 21.2554 4.26357 19.321 4.26357C16.7967 4.26357 14.6854 4.4405 12.9868 4.79437C11.2883 5.14823 9.93178 5.69082 8.91737 6.42214C7.92655 7.12987 7.20703 8.02632 6.7588 9.11151C6.33417 10.1967 6.12185 11.4706 6.12185 12.9332C6.12185 14.4195 6.33417 15.7052 6.7588 16.7904C7.20703 17.8755 7.92655 18.7838 8.91737 19.5151C9.93178 20.2228 11.2883 20.7536 12.9868 21.1075C14.6854 21.4614 16.7967 21.6383 19.321 21.6383C20.76 21.6383 22.1873 21.5675 23.6027 21.426C25.0418 21.2844 26.4336 21.1193 27.7783 20.9306C29.123 20.7182 30.3379 20.5059 31.4231 20.2936V12.5794H35.8818V23.3015C34.372 23.6789 32.7088 24.0328 30.8923 24.363C29.0758 24.6697 27.2003 24.9174 25.2659 25.1062C23.355 25.2949 21.4677 25.3893 19.6041 25.3893C16.4665 25.3893 13.7653 25.1415 11.5006 24.6461C9.25944 24.1271 7.41935 23.3604 5.9803 22.346C4.56485 21.308 3.51505 20.0105 2.83091 18.4535C2.14677 16.8965 1.80471 15.0564 1.80471 12.9332ZM58.8899 25.4246C54.5256 25.4246 50.9397 24.9882 48.1324 24.1153C45.3251 23.2189 43.2373 21.8506 41.869 20.0105C40.5243 18.1704 39.852 15.8113 39.852 12.9332C39.852 10.0316 40.5243 7.67246 41.869 5.85596C43.2373 4.01587 45.3251 2.65939 48.1324 1.78652C50.9397 0.890067 54.5256 0.441839 58.8899 0.441839C63.2306 0.441839 66.8046 0.890067 69.612 1.78652C72.4193 2.65939 74.5071 4.01587 75.8754 5.85596C77.2436 7.67246 77.9278 10.0316 77.9278 12.9332C77.9278 15.8113 77.2436 18.1704 75.8754 20.0105C74.5071 21.8506 72.4193 23.2189 69.612 24.1153C66.8046 24.9882 63.2306 25.4246 58.8899 25.4246ZM58.8899 21.6737C61.6264 21.6737 63.9265 21.5085 65.7902 21.1783C67.6775 20.8244 69.1873 20.2936 70.3197 19.5859C71.4521 18.8546 72.2659 17.9463 72.7613 16.8611C73.2803 15.7524 73.5398 14.4431 73.5398 12.9332C73.5398 11.3998 73.2803 10.0905 72.7613 9.00535C72.2659 7.92016 71.4521 7.02371 70.3197 6.31598C69.1873 5.58466 67.6775 5.05387 65.7902 4.72359C63.9265 4.36973 61.6264 4.1928 58.8899 4.1928C55.2333 4.1928 52.3316 4.49948 50.1848 5.11284C48.0381 5.72621 46.4928 6.68164 45.5492 7.97914C44.6292 9.25305 44.1691 10.9044 44.1691 12.9332C44.1691 14.9621 44.6292 16.6252 45.5492 17.9227C46.4928 19.1966 48.0381 20.1403 50.1848 20.7536C52.3316 21.367 55.2333 21.6737 58.8899 21.6737ZM86.5526 21.2844H112.916V25H82.2355V0.866475H86.5526V21.2844ZM137.686 25H116.136V0.866475H137.686C139.998 0.866475 142.027 1.09059 143.773 1.53882C145.518 1.96345 146.993 2.64759 148.196 3.59123C149.399 4.51127 150.296 5.738 150.885 7.27141C151.499 8.80482 151.805 10.6803 151.805 12.8979C151.805 15.139 151.499 17.0381 150.885 18.5951C150.272 20.1285 149.364 21.367 148.161 22.3106C146.981 23.2543 145.507 23.9384 143.737 24.363C141.992 24.7877 139.975 25 137.686 25ZM120.453 4.58205V21.2844H137.297C139.727 21.2844 141.673 21.0131 143.136 20.4705C144.622 19.9044 145.695 19.0079 146.356 17.7812C147.016 16.5544 147.347 14.9267 147.347 12.8979C147.347 10.8454 147.016 9.21767 146.356 8.01453C145.695 6.81139 144.622 5.93853 143.136 5.39593C141.673 4.85334 139.727 4.58205 137.297 4.58205H120.453ZM170.988 11.1993L183.727 0.866475H190.026L173.677 14.101L172.722 14.4195L159.629 25H153.153L169.749 11.7301L170.988 11.1993ZM153.33 0.866475H159.876L172.545 11.1639L173.783 11.7655L190.273 25H183.656L170.598 14.3487L169.289 13.7471L153.33 0.866475Z" fill="url(#paint0_linear_5115_14977)"/>
<defs>
<linearGradient id="paint0_linear_5115_14977" x1="0" y1="13" x2="192" y2="13" gradientUnits="userSpaceOnUse">
<stop stop-color="#FAE8B2"/>
<stop offset="1" stop-color="#554B2D"/>
</linearGradient>
</defs>
</svg>
